# xmcd CD database file
#
# Track frame offsets:
#	150
#	17229
#	34078
#	51163
#	66871
#	106574
#	121973
#	138538
#	155112
#	170677
#	185292
#	200749
#	217595
#	232032
#	247615
#	264088
#	278303
#	295440
#	309758
#
# Disc length: 4404 seconds
#
# Revision: 2
# Processed by: cddbd v1.4b41PL1 Copyright (c) Steve Scherf et al.
# Submitted via: Feurio! 1.50.2ß - http://www.feurio.com
#
DISCID=03113213
DTITLE=Various Artist - Technohedz
DYEAR=1900
DGENRE=
TTITLE0=Various Artist - Firestarter - The Prodigy
TTITLE1=Various Artist - Open Up - Leftfield and Lydon
TTITLE2=Various Artist - Papua New Guinea - The Future Sound of London
TTITLE3=Various Artist - Go - Moby
TTITLE4=Various Artist - Dark and Long - Underworld
TTITLE5=Various Artist - Move Any Mountain - Shamen
TTITLE6=Various Artist - Passion - Gat Decor
TTITLE7=Various Artist - Phoebus Apollo - Carl Cox
TTITLE8=Various Artist - Texas Cowboys - The Grid
TTITLE9=Various Artist - I Wanna Be A Hippy - Technohead
TTITLE10=Various Artist - Something Good - Utah Saints
TTITLE11=Various Artist - Funky Acid Baby - Narcotic Thrust
TTITLE12=Various Artist - Don't You Want Me - Felix
TTITLE13=Various Artist - Activ 8 - Altern 8
TTITLE14=Various Artist - Hypnotizin' - Winx
TTITLE15=Various Artist - Skyplus - Nylon Moon
TTITLE16=Various Artist - Pacific-707 - 808 State
TTITLE17=Various Artist - The Sun Rising - Beloved
TTITLE18=the verve - bittersweet symphony
EXTD=
EXTT0=
EXTT1=
EXTT2=
EXTT3=
EXTT4=
EXTT5=
EXTT6=
EXTT7=
EXTT8=
EXTT9=
EXTT10=
EXTT11=
EXTT12=
EXTT13=
EXTT14=
EXTT15=
EXTT16=
EXTT17=
EXTT18=
PLAYORDER=
